<?xml version="1.0" encoding="utf-8" ?><svg xmlns="http://www.w3.org/2000/svg" xmlns:xlink="http://www.w3.org/1999/xlink" width="1024" height="1024" viewBox="0 0 1024 1024"><defs><linearGradient id="gradient_0" gradientUnits="userSpaceOnUse" x1="749.2735" y1="819.28589" x2="239.46919" y2="271.19418"><stop offset="0" stop-color="#FBD9B5"/><stop offset="1" stop-color="#FBF9EB"/></linearGradient></defs><path fill="url(#gradient_0)" d="M344.98 178.505C356.329 178.421 367.654 178.055 378.998 178.16C379.029 196.288 375.951 216.393 389.982 230.473C396.3 236.812 404.229 240.031 413.192 239.986C422.416 239.94 430.912 236.492 437.352 229.847C452.147 214.582 444.476 181.043 448.278 179.091C449.647 178.389 452.014 178.484 453.551 178.445C458.974 178.306 478.911 177.719 482.97 178.645L483.688 179.433C483.003 183.053 483.17 190.274 483.202 194.091C483.301 206.049 481.848 219.229 490.276 228.969C496.185 235.798 505.033 240.152 514.047 240.862C522.137 241.571 530.164 238.935 536.257 233.566C551.328 220.296 547.774 197.814 548.733 179.329C553.679 178.161 576.924 178.11 582.639 178.498C583.188 190.015 581.506 202.449 583.542 213.666C588.103 238.792 621.364 250.829 639.206 230.99C653.582 215.005 649.163 197.43 650.776 178.606L685.481 178.514C685.462 182.994 686.026 194.264 685.434 198.487C680.757 231.848 714.168 254.872 740.968 231.521C755.344 218.996 748.845 196.418 751.495 178.774C771.388 179.056 788.556 186.797 802.308 201.04C822.214 221.659 821.261 235.792 821.202 261.839L821.096 299.475C820.582 334.725 821.046 370.901 821.031 406.217L820.983 600.744L820.98 701.359C820.975 715.658 820.282 741.716 821.475 755.078L821.525 785.407C821.519 811.914 820.699 835.024 800.737 855.169C791.732 864.256 778.862 870.879 766.465 873.692C750.575 877.297 730.191 876.37 713.531 876.431L648.866 876.452C647.327 876.444 641.383 876.445 640.148 876.227C629.106 875.757 616.594 875.97 605.475 875.966L549.219 875.961L372.043 875.697L314.631 875.605C304.686 875.594 290.331 876.064 281.02 874.906C264.647 872.557 245.522 868.953 232.448 858.219C206.145 836.624 207.999 800.456 207.686 769.985C207.461 746.708 207.372 723.43 207.419 700.152L207.536 430.941C207.861 402.108 208.024 373.273 208.027 344.438C208.049 331.387 208.709 311.662 207.331 299.353C205.354 287.642 207.026 273.544 206.506 261.682C205.459 237.757 208.197 216.782 225.936 199.002C238.66 186.248 253.881 178.763 272.135 178.179C274.039 178.112 276.113 178.335 277.522 179.703C278.294 182.121 278.107 184.697 278.121 187.277C277.952 199.598 276.608 215.175 283.746 225.824C295.469 243.313 323.918 243.468 336.831 227.301C347.595 213.825 343.041 195.301 344.771 179.435C344.84 179.125 344.91 178.815 344.98 178.505Z"/><defs><linearGradient id="gradient_1" gradientUnits="userSpaceOnUse" x1="673.37964" y1="432.99747" x2="351.86206" y2="83.798187"><stop offset="0" stop-color="#FCA456"/><stop offset="1" stop-color="#F9D485"/></linearGradient></defs><path fill="url(#gradient_1)" d="M344.98 178.505C356.329 178.421 367.654 178.055 378.998 178.16C379.029 196.288 375.951 216.393 389.982 230.473C396.3 236.812 404.229 240.031 413.192 239.986C422.416 239.94 430.912 236.492 437.352 229.847C452.147 214.582 444.476 181.043 448.278 179.091C449.647 178.389 452.014 178.484 453.551 178.445C458.974 178.306 478.911 177.719 482.97 178.645L483.688 179.433C483.003 183.053 483.17 190.274 483.202 194.091C483.301 206.049 481.848 219.229 490.276 228.969C496.185 235.798 505.033 240.152 514.047 240.862C522.137 241.571 530.164 238.935 536.257 233.566C551.328 220.296 547.774 197.814 548.733 179.329C553.679 178.161 576.924 178.11 582.639 178.498C583.188 190.015 581.506 202.449 583.542 213.666C588.103 238.792 621.364 250.829 639.206 230.99C653.582 215.005 649.163 197.43 650.776 178.606L685.481 178.514C685.462 182.994 686.026 194.264 685.434 198.487C680.757 231.848 714.168 254.872 740.968 231.521C755.344 218.996 748.845 196.418 751.495 178.774C771.388 179.056 788.556 186.797 802.308 201.04C822.214 221.659 821.261 235.792 821.202 261.839L821.096 299.475L424.788 299.384L297.369 299.367C267.631 299.416 237.034 299.831 207.331 299.353C205.354 287.642 207.026 273.544 206.506 261.682C205.459 237.757 208.197 216.782 225.936 199.002C238.66 186.248 253.881 178.763 272.135 178.179C274.039 178.112 276.113 178.335 277.522 179.703C278.294 182.121 278.107 184.697 278.121 187.277C277.952 199.598 276.608 215.175 283.746 225.824C295.469 243.313 323.918 243.468 336.831 227.301C347.595 213.825 343.041 195.301 344.771 179.435C344.84 179.125 344.91 178.815 344.98 178.505Z"/><path fill="#F7963F" d="M640.148 876.227C640.956 876.124 640.478 876.235 641.534 875.729C642.738 854.23 640.36 829.02 642.208 807.225C643.674 792.683 649.144 778.667 660.404 769.146C679.888 752.671 704.269 754.447 728.406 754.476L771.537 754.639C785.354 754.702 808.764 753.991 821.475 755.078L821.525 785.407C821.519 811.914 820.699 835.024 800.737 855.169C791.732 864.256 778.862 870.879 766.465 873.692C750.575 877.297 730.191 876.37 713.531 876.431L648.866 876.452C647.327 876.444 641.383 876.445 640.148 876.227Z"/><defs><linearGradient id="gradient_2" gradientUnits="userSpaceOnUse" x1="619.85767" y1="573.23938" x2="491.91916" y2="529.49664"><stop offset="0" stop-color="#F8872F"/><stop offset="1" stop-color="#F9AD5B"/></linearGradient></defs><path fill="url(#gradient_2)" d="M503.112 570.512C489.074 568.717 472.377 570.868 458.099 570.269C452.777 570.046 447.02 570.793 441.79 569.667C425.653 566.191 415.619 546.9 423.563 532.005C429.327 520.67 435.657 510.556 441.884 499.799L474.751 443.243C479.653 434.968 484.503 426.663 489.302 418.328C510.147 382.204 508.071 384.498 549.562 384.42L594.23 384.488C604.463 384.38 614.079 382.903 621.851 390.498C626.48 394.988 629.081 401.17 629.054 407.618C629.058 410.973 628.291 415.748 626.318 418.471C612.227 437.914 594.504 456.532 578.634 474.443L556.93 499.337C554.008 502.711 549.929 507.811 546.949 510.896C560.391 512.137 574.68 511.127 588.327 511.371C602.864 511.632 616.029 508.22 626.566 521.361C632.428 528.672 632.754 538.901 629.952 547.721C628.862 551.153 623.52 556.026 621.216 559.091C611.819 569.625 601.892 579.736 592.19 589.984L559.354 625.355C550.512 634.914 541.851 645.232 533.131 654.974C523.371 665.708 513.495 676.335 503.504 686.853C498.279 692.469 493.136 698.162 488.079 703.93C485.399 706.938 481.145 711.989 478.1 714.353C475.161 716.938 463.036 722.896 458.721 725.144L425.132 742.661C421.348 736.193 415.966 731.197 409.587 727.381L408.863 726.877C410.327 721.806 427.088 697.004 430.613 690.351C432.645 686.514 436.969 682.181 438.205 676.938C436.551 664.514 428.331 663.539 417.976 663.507C446.027 633.247 475.724 601.236 503.112 570.512Z"/><defs><linearGradient id="gradient_3" gradientUnits="userSpaceOnUse" x1="562.80133" y1="539.58844" x2="426.34134" y2="514.09033"><stop offset="0" stop-color="#FBAB57"/><stop offset="1" stop-color="#F9D490"/></linearGradient></defs><path fill="url(#gradient_3)" d="M503.112 570.512C489.074 568.717 472.377 570.868 458.099 570.269C452.777 570.046 447.02 570.793 441.79 569.667C425.653 566.191 415.619 546.9 423.563 532.005C429.327 520.67 435.657 510.556 441.884 499.799L474.751 443.243C479.653 434.968 484.503 426.663 489.302 418.328C510.147 382.204 508.071 384.498 549.562 384.42L594.23 384.488C591.991 385.557 591.698 387.978 589.918 390.129C585.331 395.673 580.722 401.093 576.388 406.846C558.411 430.992 540.69 455.329 523.229 479.851C515.211 491.082 505.59 504.388 498.578 516.238C496.263 520.15 495.158 531.083 495.799 535.867L496.202 536.49C506.728 552.487 533.613 539.004 545.938 551.177C549.178 555.991 546.453 564.058 542.846 567.917C513.878 598.91 483.861 628.936 455.948 660.934C453.07 664.233 442.131 674.545 440.456 677.481C439.385 677.357 439.248 677.259 438.205 676.938C436.551 664.514 428.331 663.539 417.976 663.507C446.027 633.247 475.724 601.236 503.112 570.512Z"/><path fill="#F9BB6F" d="M438.205 676.938C439.248 677.259 439.385 677.357 440.456 677.481C445.726 676.685 451.615 676.559 456.132 679.656C461.752 683.51 460.273 690.849 462.746 695.826C463.572 697.488 470.473 697.424 471.849 698.102C474.129 699.227 476.777 701.904 479.285 703.231C479.474 709.18 478.07 711.734 478.1 714.353C475.161 716.938 463.036 722.896 458.721 725.144L425.132 742.661C421.348 736.193 415.966 731.197 409.587 727.381L408.863 726.877C410.327 721.806 427.088 697.004 430.613 690.351C432.645 686.514 436.969 682.181 438.205 676.938Z"/><defs><linearGradient id="gradient_4" gradientUnits="userSpaceOnUse" x1="417.20517" y1="749.80408" x2="401.94046" y2="738.7384"><stop offset="0" stop-color="#393533"/><stop offset="1" stop-color="#555857"/></linearGradient></defs><path fill="url(#gradient_4)" d="M399.797 724.434C402.751 725.127 405.92 726.063 408.863 726.877L409.587 727.381C415.966 731.197 421.348 736.193 425.132 742.661C418.82 746.011 407.149 751.582 400.469 754.22C399.101 754.69 398.921 754.651 397.455 754.775C396.423 754.258 395.385 753.911 395.065 752.62C393.648 746.895 398.186 729.763 399.797 724.434Z"/><path fill="#757572" d="M399.797 724.434C402.751 725.127 405.92 726.063 408.863 726.877L409.587 727.381C408.131 729.197 399.3 748.154 396.841 752.569C398.352 753.671 398.728 753.701 400.469 754.22C399.101 754.69 398.921 754.651 397.455 754.775C396.423 754.258 395.385 753.911 395.065 752.62C393.648 746.895 398.186 729.763 399.797 724.434Z"/><path fill="#F9BB6F" d="M310.748 142.163C323.708 140.405 328.894 151.114 329.161 162.094C329.524 177.014 329.732 192.136 328.702 207.025C328.024 216.829 321.817 222.244 312.624 224.03C290.043 224.355 292.645 203.633 292.418 187.496C292.286 178.106 291.921 168.093 292.948 158.781C294.232 147.149 300.146 143.611 310.748 142.163Z"/><path fill="#F9BB6F" d="M615.999 141.138C623.932 140.887 633.328 146.195 634.555 154.463C636.89 170.197 636.738 188.693 635.517 204.533C634.688 215.302 629.204 222.22 618.45 224.488C595.163 225.044 598.238 204.086 597.991 187.525C597.847 177.829 597.604 167.603 598.325 157.975C599.183 146.519 605.482 142.777 615.999 141.138Z"/><path fill="#F9BB6F" d="M497.049 168.758C497.512 160.721 496.887 151.666 503.288 145.83C507.141 142.317 512.622 140.66 517.775 141.077C522.675 141.478 527.196 143.872 530.281 147.7C536.467 155.442 534.537 173.625 534.598 183.407C534.652 191.981 534.757 203.399 533.687 211.8C527.035 231.092 500.609 227.895 498.068 210.628C496.335 198.858 497.073 181.229 497.049 168.758Z"/><path fill="#F9BB6F" d="M409.398 142.568C417.563 142.117 428.403 142.449 430.527 152.231C433.629 167.647 432.657 185.368 432.026 201.114C431.664 210.149 425.859 220.967 417.046 224.007C395.158 229.309 394.153 203.018 395.204 188.492C396.334 172.877 388.811 147.96 409.398 142.568Z"/><path fill="#F9BB6F" d="M715.482 141.067C734.417 139.471 737.658 158.039 736.02 172.238C733.899 190.632 744.011 219.165 720.395 224.425C696.669 225.257 700.72 202.8 700.394 185.849C700.085 169.822 695.99 146.047 715.482 141.067Z"/></svg>